<?xml version="1.0" ?>
<svg viewBox="0 0 32 32" xmlns="http://www.w3.org/2000/svg">
  <g fill="red" opacity="0"><path d=" M16 5 A11 11 0 0 0 16 27 A11 11 0 0 0 16 5 M16 10 A6 6 0 0 1 16 22 A6 6 0 0 1 16 10 "/>
    <path d=" M14 0 L18 0 L20 8 L12 8 z M14 32 L18 32 L20 24 L12 24 z "/>
    <path d=" M14 0 L18 0 L20 8 L12 8 z M14 32 L18 32 L20 24 L12 24 z " transform="rotate(45 16 16)"/>
    <path d=" M14 0 L18 0 L20 8 L12 8 z M14 32 L18 32 L20 24 L12 24 z " transform="rotate(90 16 16)"/>
    <path d=" M14 0 L18 0 L20 8 L12 8 z M14 32 L18 32 L20 24 L12 24 z " transform="rotate(135 16 16)"/>
  </g>
  <g fill="none" id="octogon-guide" stroke="none" stroke-width=".125">
    <rect height="20" width="20" x="6" y="6"/>
    <rect height="20" transform="rotate(45 16 16)" width="20" x="6" y="6"/>
  </g>
  <g fill="#ae0010">
    <path d="M14 0 H18 L19 6 L20.707 6.707 L26 3.293 L28.707 6 L25.293 11.293 L26 13 L32 14 V18 L26 19 L25.293 20.707 L28.707 26 L26 28.707 L20.707 25.293 L19 26 L18 32 L14 32 L13 26 L11.293 25.293 L6 28.707 L3.293 26 L6.707 20.707 L6 19 L0 18 L0 14 L6 13 L6.707 11.293 L3.293 6 L6 3.293 L11.293 6.707 L13 6 L14 0 z M16 10 A6 6 0 0 0 16 22 A6 6 0 0 0 16 10"/>
  </g>
</svg>